<svg width="1550" height="424" viewBox="0 0 1550 424" fill="none" xmlns="http://www.w3.org/2000/svg">
<rect width="1550" height="424" rx="50" fill="#14213D"/>
<path d="M579.26 137.7H547.94L488 286.2H524.36L535.34 256.5H591.86L602.84 286.2H639.2L579.26 137.7ZM580.34 226.8H546.86L563.42 183.6H563.78L580.34 226.8Z" fill="white"/>
<path d="M678.832 137.7H644.992V286.2H729.952V256.5H678.832V137.7Z" fill="white"/>
<path d="M746.77 137.7V286.2H789.79C830.65 286.2 864.67 255.24 864.67 211.86C864.67 168.66 830.47 137.7 789.79 137.7H746.77ZM780.61 255.96V167.94H785.83C811.03 167.94 828.13 187.2 828.13 212.04C827.95 236.88 810.85 255.96 785.83 255.96H780.61Z" fill="white"/>
<path d="M879.66 137.7V286.2H913.5V227.52L958.86 286.2H1001.88L950.76 224.82C968.94 219.06 981.18 204.12 981.18 181.8C981.18 152.64 960.3 137.7 932.76 137.7H879.66ZM913.5 203.58V164.7H917.46C930.24 164.7 945.54 165.6 945.54 184.14C945.54 202.68 930.24 203.58 917.46 203.58H913.5Z" fill="white"/>
<path d="M1122.63 137.7H1088.79V223.56C1088.79 248.4 1081.23 255.6 1064.67 255.6C1048.11 255.6 1040.55 248.4 1040.55 223.56V137.7H1006.71V233.46C1006.71 270.18 1026.87 288.9 1064.67 288.9C1102.47 288.9 1122.63 270.18 1122.63 233.46V137.7Z" fill="white"/>
<path d="M1265.21 286.2H1299.05L1285.73 137.7H1249.73L1216.79 223.38L1183.85 137.7H1147.85L1134.53 286.2H1168.37L1175.39 198.18H1176.29L1206.71 285.3H1226.87L1257.29 198.18H1258.19L1265.21 286.2Z" fill="white"/>
<path d="M1306.13 211.86C1306.13 255.24 1337.09 288.9 1381.01 288.9C1423.67 288.9 1455.71 255.24 1455.71 211.86C1455.71 168.48 1422.23 135 1381.01 135C1340.15 135 1306.13 168.48 1306.13 211.86ZM1342.67 211.86C1342.67 189.72 1354.91 167.58 1381.01 167.58C1407.29 167.58 1419.17 189.72 1419.17 211.86C1419.17 234 1408.01 256.14 1381.01 256.14C1353.29 256.14 1342.67 234 1342.67 211.86Z" fill="white"/>
<path d="M243.228 97.0253C243.228 101.166 244.318 105.235 246.388 108.821L376.401 334.009C382.268 344.172 393.112 350.432 404.847 350.432L414.101 350.432C427.13 350.432 437.693 339.87 437.693 326.841V326.841C437.693 322.7 436.602 318.632 434.532 315.046L304.519 89.8572C298.652 79.6946 287.809 73.4342 276.074 73.4342L266.819 73.4342C253.79 73.4342 243.228 83.9963 243.228 97.0253V97.0253Z" fill="#FCA311"/>
<path d="M107.952 327.042C107.952 322.9 109.042 318.832 111.113 315.246L241.126 90.0574C246.993 79.8948 257.836 73.6345 269.571 73.6345L278.826 73.6345C291.855 73.6345 302.417 84.1965 302.417 97.2255V97.2255C302.417 101.367 301.327 105.435 299.257 109.021L169.244 334.21C163.376 344.372 152.533 350.633 140.798 350.633L131.544 350.633C118.515 350.633 107.952 340.071 107.952 327.042V327.042Z" fill="white"/>
<path d="M191.217 327.323C191.217 323.182 192.307 319.114 194.377 315.527L324.39 90.3388C330.257 80.1762 341.101 73.9158 352.835 73.9158L362.09 73.9158C375.119 73.9158 385.681 84.4779 385.681 97.5069V97.5069C385.681 101.648 384.591 105.716 382.521 109.302L252.508 334.491C246.641 344.654 235.797 350.914 224.063 350.914L214.808 350.914C201.779 350.914 191.217 340.352 191.217 327.323V327.323Z" fill="white"/>
<path d="M280.31 327.323C280.31 323.182 281.4 319.114 283.47 315.527L413.483 90.3388C419.35 80.1762 430.194 73.9158 441.929 73.9158L451.183 73.9158C464.212 73.9158 474.775 84.4779 474.775 97.5069V97.5069C474.775 101.648 473.684 105.716 471.614 109.302L341.601 334.491C335.734 344.654 324.891 350.914 313.156 350.914L303.901 350.914C290.872 350.914 280.31 340.352 280.31 327.323V327.323Z" fill="white"/>
</svg>
