<svg width="1105" height="1105" viewBox="0 0 1105 1105" fill="none" xmlns="http://www.w3.org/2000/svg">
<rect width="1105" height="1105" rx="200" fill="#14213D"/>
<path d="M155.22 791.5H123.9L63.96 940H100.32L111.3 910.3H167.82L178.8 940H215.16L155.22 791.5ZM156.3 880.6H122.82L139.38 837.4H139.74L156.3 880.6Z" fill="white"/>
<path d="M254.792 791.5H220.952V940H305.912V910.3H254.792V791.5Z" fill="white"/>
<path d="M322.73 791.5V940H365.75C406.61 940 440.63 909.04 440.63 865.66C440.63 822.46 406.43 791.5 365.75 791.5H322.73ZM356.57 909.76V821.74H361.79C386.99 821.74 404.09 841 404.09 865.84C403.91 890.68 386.81 909.76 361.79 909.76H356.57Z" fill="white"/>
<path d="M455.62 791.5V940H489.46V881.32L534.82 940H577.84L526.72 878.62C544.9 872.86 557.14 857.92 557.14 835.6C557.14 806.44 536.26 791.5 508.72 791.5H455.62ZM489.46 857.38V818.5H493.42C506.2 818.5 521.5 819.4 521.5 837.94C521.5 856.48 506.2 857.38 493.42 857.38H489.46Z" fill="white"/>
<path d="M698.588 791.5H664.748V877.36C664.748 902.2 657.188 909.4 640.628 909.4C624.068 909.4 616.508 902.2 616.508 877.36V791.5H582.668V887.26C582.668 923.98 602.828 942.7 640.628 942.7C678.428 942.7 698.588 923.98 698.588 887.26V791.5Z" fill="white"/>
<path d="M841.173 940H875.013L861.693 791.5H825.693L792.753 877.18L759.813 791.5H723.813L710.493 940H744.333L751.353 851.98H752.253L782.673 939.1H802.833L833.253 851.98H834.153L841.173 940Z" fill="white"/>
<path d="M882.085 865.66C882.085 909.04 913.045 942.7 956.965 942.7C999.625 942.7 1031.67 909.04 1031.67 865.66C1031.67 822.28 998.185 788.8 956.965 788.8C916.105 788.8 882.085 822.28 882.085 865.66ZM918.625 865.66C918.625 843.52 930.865 821.38 956.965 821.38C983.245 821.38 995.125 843.52 995.125 865.66C995.125 887.8 983.965 909.94 956.965 909.94C929.245 909.94 918.625 887.8 918.625 865.66Z" fill="white"/>
<path d="M452.791 200.978C452.791 208 454.639 214.898 458.15 220.978L737.464 704.764C744.609 717.14 757.814 724.764 772.105 724.764L816.592 724.764C838.684 724.764 856.592 706.856 856.592 684.764L856.592 673.37C856.592 666.348 854.744 659.451 851.233 653.37L571.919 169.584C564.774 157.208 551.569 149.584 537.278 149.584L492.791 149.584C470.7 149.584 452.791 167.493 452.791 189.584L452.791 200.978Z" fill="#FCA311"/>
<path d="M171.895 673.786C171.895 666.764 173.744 659.867 177.254 653.786L456.568 170C463.713 157.624 476.919 150 491.209 150L535.697 150C557.788 150 575.697 167.909 575.697 190L575.697 201.394C575.697 208.416 573.848 215.313 570.338 221.394L291.024 705.18C283.878 717.556 270.673 725.18 256.383 725.18L211.895 725.18C189.804 725.18 171.895 707.271 171.895 685.18L171.895 673.786Z" fill="white"/>
<path d="M344.791 674.37C344.791 667.348 346.639 660.451 350.15 654.37L629.464 170.584C636.609 158.208 649.814 150.584 664.105 150.584L708.592 150.584C730.684 150.584 748.592 168.493 748.592 190.584L748.592 201.978C748.592 209 746.744 215.898 743.233 221.978L463.919 705.764C456.774 718.14 443.569 725.764 429.278 725.764L384.791 725.764C362.7 725.764 344.791 707.856 344.791 685.764L344.791 674.37Z" fill="white"/>
<path d="M529.791 674.37C529.791 667.348 531.639 660.451 535.15 654.37L814.464 170.584C821.609 158.208 834.814 150.584 849.105 150.584L893.592 150.584C915.684 150.584 933.592 168.493 933.592 190.584L933.592 201.978C933.592 209 931.744 215.898 928.233 221.978L648.919 705.764C641.774 718.14 628.569 725.764 614.278 725.764L569.791 725.764C547.7 725.764 529.791 707.856 529.791 685.764L529.791 674.37Z" fill="white"/>
</svg>
