<svg width="1008" height="1012" viewBox="0 0 1008 1012" fill="none" xmlns="http://www.w3.org/2000/svg">
<circle cx="504" cy="508" r="504" fill="#14213D"/>
<path d="M202.975 684.07H178.96L133 797.93H160.879L169.299 775.158H212.636L221.055 797.93H248.934L202.975 684.07ZM203.803 752.386H178.132L190.829 719.263H191.105L203.803 752.386Z" fill="white"/>
<path d="M279.323 684.07H253.376V797.93H318.52V775.158H279.323V684.07Z" fill="white"/>
<path d="M331.415 684.07V797.93H364.401C395.731 797.93 421.816 774.192 421.816 740.931C421.816 707.808 395.593 684.07 364.401 684.07H331.415ZM357.362 774.744V707.256H361.365C380.687 707.256 393.799 722.023 393.799 741.069C393.661 760.115 380.549 774.744 361.365 774.744H357.362Z" fill="white"/>
<path d="M433.31 684.07V797.93H459.258V752.938L494.038 797.93H527.024L487.827 750.868C501.767 746.451 511.152 734.996 511.152 717.883C511.152 695.525 495.142 684.07 474.025 684.07H433.31ZM459.258 734.582V704.772H462.294C472.093 704.772 483.825 705.462 483.825 719.677C483.825 733.892 472.093 734.582 462.294 734.582H459.258Z" fill="white"/>
<path d="M619.609 684.07H593.662V749.902C593.662 768.947 587.865 774.468 575.167 774.468C562.47 774.468 556.673 768.947 556.673 749.902V684.07H530.726V757.492C530.726 785.647 546.184 800 575.167 800C604.151 800 619.609 785.647 619.609 757.492V684.07Z" fill="white"/>
<path d="M728.938 797.93H754.885L744.672 684.07H717.068L691.811 749.764L666.554 684.07H638.951L628.737 797.93H654.685L660.067 730.442H660.757L684.082 797.24H699.54L722.865 730.442H723.555L728.938 797.93Z" fill="white"/>
<path d="M760.308 740.931C760.308 774.192 784.047 800 817.723 800C850.433 800 875 774.192 875 740.931C875 707.67 849.329 682 817.723 682C786.393 682 760.308 707.67 760.308 740.931ZM788.325 740.931C788.325 723.956 797.71 706.98 817.723 706.98C837.873 706.98 846.982 723.956 846.982 740.931C846.982 757.906 838.425 774.882 817.723 774.882C796.468 774.882 788.325 757.906 788.325 740.931Z" fill="white"/>
<path d="M430.91 229.263C430.91 235.854 432.646 242.33 435.942 248.039L646.441 612.634C653.586 625.01 666.791 632.634 681.082 632.634L702.906 632.634C723.645 632.634 740.458 615.821 740.458 595.082V595.082C740.458 588.49 738.723 582.014 735.427 576.306L524.928 211.711C517.782 199.335 504.577 191.711 490.287 191.711L468.463 191.711C447.723 191.711 430.911 208.523 430.91 229.263V229.263Z" fill="#FCA311"/>
<path d="M215.58 595.401C215.58 588.809 217.316 582.333 220.611 576.625L431.111 212.029C438.256 199.653 451.461 192.029 465.752 192.029L487.576 192.029C508.315 192.029 525.128 208.842 525.128 229.581V229.581C525.128 236.173 523.393 242.649 520.097 248.358L309.598 612.953C302.452 625.329 289.247 632.953 274.957 632.953L253.133 632.953C232.393 632.953 215.58 616.14 215.58 595.401V595.401Z" fill="white"/>
<path d="M348.119 595.849C348.119 589.257 349.855 582.781 353.151 577.072L563.65 212.477C570.795 200.101 584 192.477 598.291 192.477L620.115 192.477C640.854 192.477 657.667 209.29 657.667 230.029V230.029C657.667 236.621 655.932 243.097 652.636 248.805L442.137 613.401C434.991 625.777 421.786 633.401 407.496 633.401L385.672 633.401C364.932 633.401 348.12 616.588 348.119 595.849V595.849Z" fill="white"/>
<path d="M489.937 595.849C489.937 589.257 491.672 582.781 494.968 577.072L705.467 212.477C712.612 200.101 725.817 192.477 740.108 192.477L761.932 192.477C782.672 192.477 799.484 209.29 799.484 230.029V230.029C799.484 236.621 797.749 243.097 794.453 248.805L583.954 613.401C576.809 625.777 563.604 633.401 549.313 633.401L527.489 633.401C506.75 633.401 489.937 616.588 489.937 595.849V595.849Z" fill="white"/>
</svg>
