<svg width="1371" height="218" viewBox="0 0 1371 218" fill="none" xmlns="http://www.w3.org/2000/svg">
<path d="M129.27 3.82456H84.9053L0 214.175H51.5041L67.0573 172.105H147.118L162.671 214.175H214.175L129.27 3.82456ZM130.8 130.035H83.3754L106.833 68.8421H107.343L130.8 130.035Z" fill="#14213D"/>
<path d="M270.315 3.82456H222.38V214.175H342.727V172.105H270.315V3.82456Z" fill="#14213D"/>
<path d="M366.548 3.82456V214.175H427.486C485.365 214.175 533.554 170.32 533.554 108.873C533.554 47.6795 485.11 3.82456 427.486 3.82456H366.548ZM414.483 171.34V46.6597H421.877C457.573 46.6597 481.795 73.9415 481.795 109.127C481.54 144.313 457.318 171.34 421.877 171.34H414.483Z" fill="#14213D"/>
<path d="M554.788 3.82456V214.175H602.723V131.055L666.976 214.175H727.914L655.502 127.23C681.254 119.071 698.592 97.9088 698.592 66.2924C698.592 24.9871 669.015 3.82456 630.005 3.82456H554.788ZM602.723 97.1439V42.0702H608.332C626.435 42.0702 648.108 43.345 648.108 69.607C648.108 95.869 626.435 97.1439 608.332 97.1439H602.723Z" fill="#14213D"/>
<path d="M898.953 3.82456H851.019V125.446C851.019 160.632 840.31 170.83 816.853 170.83C793.395 170.83 782.687 160.632 782.687 125.446V3.82456H734.752V139.469C734.752 191.483 763.309 218 816.853 218C870.397 218 898.953 191.483 898.953 139.469V3.82456Z" fill="#14213D"/>
<path d="M1100.93 214.175H1148.86L1129.99 3.82456H1079L1032.34 125.191L985.679 3.82456H934.685L915.817 214.175H963.752L973.696 89.4947H974.97L1018.06 212.901H1046.62L1089.71 89.4947H1090.98L1100.93 214.175Z" fill="#14213D"/>
<path d="M1158.88 108.873C1158.88 170.32 1202.73 218 1264.95 218C1325.37 218 1370.76 170.32 1370.76 108.873C1370.76 47.4246 1323.33 0 1264.95 0C1207.07 0 1158.88 47.4246 1158.88 108.873ZM1210.64 108.873C1210.64 77.5111 1227.98 46.1497 1264.95 46.1497C1302.17 46.1497 1319 77.5111 1319 108.873C1319 140.234 1303.19 171.595 1264.95 171.595C1225.68 171.595 1210.64 140.234 1210.64 108.873Z" fill="#14213D"/>
</svg>
