<svg width="969" height="840" viewBox="0 0 969 840" fill="none" xmlns="http://www.w3.org/2000/svg">
<path d="M92.22 688.5H60.9L0.959961 837H37.32L48.3 807.3H104.82L115.8 837H152.16L92.22 688.5ZM93.3 777.6H59.82L76.38 734.4H76.74L93.3 777.6Z" fill="#14213D"/>
<path d="M191.792 688.5H157.952V837H242.912V807.3H191.792V688.5Z" fill="#14213D"/>
<path d="M259.73 688.5V837H302.75C343.61 837 377.63 806.04 377.63 762.66C377.63 719.46 343.43 688.5 302.75 688.5H259.73ZM293.57 806.76V718.74H298.79C323.99 718.74 341.09 738 341.09 762.84C340.91 787.68 323.81 806.76 298.79 806.76H293.57Z" fill="#14213D"/>
<path d="M392.62 688.5V837H426.46V778.32L471.82 837H514.84L463.72 775.62C481.9 769.86 494.14 754.92 494.14 732.6C494.14 703.44 473.26 688.5 445.72 688.5H392.62ZM426.46 754.38V715.5H430.42C443.2 715.5 458.5 716.4 458.5 734.94C458.5 753.48 443.2 754.38 430.42 754.38H426.46Z" fill="#14213D"/>
<path d="M635.588 688.5H601.748V774.36C601.748 799.2 594.188 806.4 577.628 806.4C561.068 806.4 553.508 799.2 553.508 774.36V688.5H519.668V784.26C519.668 820.98 539.828 839.7 577.628 839.7C615.428 839.7 635.588 820.98 635.588 784.26V688.5Z" fill="#14213D"/>
<path d="M778.173 837H812.013L798.693 688.5H762.693L729.753 774.18L696.813 688.5H660.813L647.493 837H681.333L688.353 748.98H689.253L719.673 836.1H739.833L770.253 748.98H771.153L778.173 837Z" fill="#14213D"/>
<path d="M819.085 762.66C819.085 806.04 850.045 839.7 893.965 839.7C936.625 839.7 968.665 806.04 968.665 762.66C968.665 719.28 935.185 685.8 893.965 685.8C853.105 685.8 819.085 719.28 819.085 762.66ZM855.625 762.66C855.625 740.52 867.865 718.38 893.965 718.38C920.245 718.38 932.125 740.52 932.125 762.66C932.125 784.8 920.965 806.94 893.965 806.94C866.245 806.94 855.625 784.8 855.625 762.66Z" fill="#14213D"/>


<path d="M389.791 97.9782C389.791 105 391.639 111.898 395.15 117.978L674.464 601.764C681.609 614.14 694.814 621.764 709.105 621.764L753.592 621.764C775.684 621.764 793.592 603.856 793.592 581.764L793.592 570.37C793.592 563.348 791.744 556.451 788.233 550.37L508.919 66.584C501.774 54.208 488.569 46.584 474.278 46.5841L429.791 46.5841C407.7 46.5841 389.791 64.4926 389.791 86.584L389.791 97.9782Z" fill="#14213D"/>
<path d="M108.895 570.786C108.895 563.764 110.744 556.867 114.254 550.786L393.568 67C400.713 54.624 413.919 47 428.209 47L472.697 47C494.788 47 512.697 64.9086 512.697 87L512.697 98.3942C512.697 105.416 510.848 112.313 507.338 118.394L228.024 602.18C220.878 614.556 207.673 622.18 193.383 622.18L148.895 622.18C126.804 622.18 108.895 604.271 108.895 582.18L108.895 570.786Z" fill="#14213D"/>
<path d="M281.791 571.37C281.791 564.348 283.639 557.451 287.15 551.37L566.464 67.5841C573.609 55.2081 586.814 47.5841 601.105 47.5841L645.592 47.5841C667.684 47.5841 685.592 65.4927 685.592 87.5841L685.592 98.9783C685.592 106 683.744 112.898 680.233 118.978L400.919 602.764C393.774 615.14 380.569 622.764 366.278 622.764L321.791 622.764C299.7 622.764 281.791 604.856 281.791 582.764L281.791 571.37Z" fill="#F59E0B"/>
<path d="M466.791 571.37C466.791 564.348 468.639 557.451 472.15 551.37L751.464 67.5841C758.609 55.2081 771.814 47.5841 786.105 47.5841L830.592 47.5841C852.684 47.5841 870.592 65.4927 870.592 87.5841L870.592 98.9783C870.592 106 868.744 112.898 865.233 118.978L585.919 602.764C578.774 615.14 565.569 622.764 551.278 622.764L506.791 622.764C484.7 622.764 466.791 604.856 466.791 582.764L466.791 571.37Z" fill="#059669" />
</svg>
