<svg width="1560" height="482" viewBox="0 0 1560 482" fill="none" xmlns="http://www.w3.org/2000/svg">
<rect width="1560" height="482" rx="100" fill="#14213D"/>
<path d="M224.27 135.825H179.905L95 346.175H146.504L162.057 304.105H242.118L257.671 346.175H309.175L224.27 135.825ZM225.8 262.035H178.375L201.833 200.842H202.343L225.8 262.035Z" fill="white"/>
<path d="M365.315 135.825H317.38V346.175H437.727V304.105H365.315V135.825Z" fill="white"/>
<path d="M461.548 135.825V346.175H522.486C580.365 346.175 628.554 302.32 628.554 240.873C628.554 179.68 580.11 135.825 522.486 135.825H461.548ZM509.483 303.34V178.66H516.877C552.573 178.66 576.795 205.942 576.795 241.127C576.54 276.313 552.318 303.34 516.877 303.34H509.483Z" fill="white"/>
<path d="M649.788 135.825V346.175H697.723V263.055L761.976 346.175H822.914L750.502 259.23C776.254 251.071 793.592 229.909 793.592 198.292C793.592 156.987 764.015 135.825 725.005 135.825H649.788ZM697.723 229.144V174.07H703.332C721.435 174.07 743.108 175.345 743.108 201.607C743.108 227.869 721.435 229.144 703.332 229.144H697.723Z" fill="white"/>
<path d="M993.953 135.825H946.019V257.446C946.019 292.632 935.31 302.83 911.853 302.83C888.395 302.83 877.687 292.632 877.687 257.446V135.825H829.752V271.469C829.752 323.483 858.309 350 911.853 350C965.397 350 993.953 323.483 993.953 271.469V135.825Z" fill="white"/>
<path d="M1195.93 346.175H1243.86L1224.99 135.825H1174L1127.34 257.191L1080.68 135.825H1029.68L1010.82 346.175H1058.75L1068.7 221.495H1069.97L1113.06 344.901H1141.62L1184.71 221.495H1185.98L1195.93 346.175Z" fill="white"/>
<path d="M1253.88 240.873C1253.88 302.32 1297.73 350 1359.95 350C1420.37 350 1465.76 302.32 1465.76 240.873C1465.76 179.425 1418.33 132 1359.95 132C1302.07 132 1253.88 179.425 1253.88 240.873ZM1305.64 240.873C1305.64 209.511 1322.98 178.15 1359.95 178.15C1397.17 178.15 1414 209.511 1414 240.873C1414 272.234 1398.19 303.595 1359.95 303.595C1320.68 303.595 1305.64 272.234 1305.64 240.873Z" fill="white"/>
</svg>
